<?xml version="1.0" standalone="no"?>
<!DOCTYPE svg PUBLIC "-//W3C//DTD SVG 20010904//EN"
 "http://www.w3.org/TR/2001/REC-SVG-20010904/DTD/svg10.dtd">
<svg id="Logo1" version="1.0" xmlns="http://www.w3.org/2000/svg"
 width="652.000000pt" height="369.000000pt" viewBox="0 0 652.000000 369.000000"
 preserveAspectRatio="xMidYMid meet">

<g transform="translate(0.000000,369.000000) scale(0.100000,-0.100000)"
fill="#f4f4f4" stroke="none">
<path d="M835 3419 c-137 -75 -182 -109 -192 -147 -3 -13 -27 -37 -57 -56
-171 -110 -261 -272 -261 -471 0 -112 1 -114 110 -385 37 -91 104 -263 151
-383 46 -121 101 -251 121 -290 85 -162 264 -288 461 -325 l94 -18 -2 -207
c-1 -229 11 -351 44 -443 68 -186 196 -326 384 -418 112 -55 169 -70 262 -70
133 0 287 52 401 133 107 77 215 203 249 291 8 19 31 67 52 105 21 39 38 77
38 85 0 8 9 33 20 55 11 22 19 45 20 51 0 24 74 191 106 241 58 91 139 182
205 231 63 47 63 47 158 52 l95 5 20 68 c10 37 22 67 26 67 4 0 10 -21 14 -47
11 -77 43 -322 71 -543 35 -276 55 -421 61 -442 6 -20 39 -24 49 -7 7 11 14
119 40 619 8 168 20 388 25 490 6 102 17 318 25 480 25 503 27 530 35 535 9 5
10 -7 35 -350 8 -115 20 -268 25 -340 6 -71 17 -229 25 -350 27 -379 34 -438
50 -454 13 -14 17 -14 30 0 13 13 79 220 169 532 9 31 21 57 26 57 6 0 10 -4
10 -9 0 -4 9 -62 20 -127 11 -66 22 -134 25 -151 l6 -33 377 -2 377 -3 1 -422
c1 -417 2 -422 24 -452 44 -63 24 -61 647 -61 549 0 569 1 601 20 18 11 41 34
52 52 20 32 20 53 20 981 0 1037 3 988 -59 1040 l-33 27 -576 0 c-554 0 -578
-1 -609 -20 -68 -41 -65 -18 -67 -558 l-1 -487 -352 -3 c-328 -2 -352 -1 -357
15 -3 10 -17 88 -31 173 -37 224 -44 250 -65 250 -23 0 -24 -5 -116 -317 -43
-145 -80 -263 -84 -263 -6 0 -18 138 -45 515 -8 116 -22 300 -30 410 -22 291
-42 566 -55 760 -13 185 -20 215 -49 215 -24 0 -28 -19 -36 -165 -3 -60 -12
-243 -20 -405 -8 -162 -22 -423 -30 -580 -25 -461 -55 -1060 -57 -1127 -3 -75
-14 -82 -23 -16 -3 27 -10 80 -16 118 -24 178 -40 303 -60 459 -23 183 -31
216 -53 216 -22 0 -31 -19 -61 -125 -16 -55 -32 -107 -37 -116 -6 -14 -28 -18
-115 -21 -79 -3 -117 -9 -143 -22 -60 -32 -157 -124 -225 -214 -71 -95 -97
-144 -145 -272 -17 -47 -40 -104 -51 -128 -10 -23 -19 -49 -19 -56 0 -8 -25
-66 -55 -130 -30 -63 -55 -120 -55 -125 0 -5 -35 -45 -77 -88 -53 -53 -101
-90 -150 -116 -79 -41 -203 -77 -267 -77 -159 1 -396 158 -479 318 -70 135
-72 149 -72 437 l0 260 50 6 c175 21 362 127 459 259 24 33 58 94 75 137 18
43 45 110 61 148 16 39 55 135 86 215 31 80 90 231 131 335 l75 190 0 110 c-1
120 -16 182 -68 271 -37 63 -127 159 -188 200 -27 18 -58 50 -70 71 -25 44
-63 71 -210 147 -116 60 -158 68 -219 42 -58 -24 -82 -61 -82 -122 0 -82 28
-104 205 -165 98 -34 158 -49 194 -49 132 0 288 -184 303 -358 7 -88 -3 -122
-129 -437 -55 -137 -118 -299 -140 -360 -22 -60 -60 -152 -85 -204 -71 -148
-170 -233 -331 -281 -65 -20 -89 -22 -215 -18 -127 5 -149 8 -207 33 -190 80
-252 158 -365 459 -29 78 -96 249 -150 381 -107 265 -125 324 -125 402 0 60
29 156 64 211 29 46 122 134 164 156 17 9 53 16 80 16 69 0 324 89 363 126 26
25 29 35 29 89 0 54 -3 64 -27 87 -35 34 -73 48 -126 48 -33 0 -70 -15 -172
-71z m5135 -1038 c16 -31 14 -1442 -2 -1464 -12 -16 -49 -17 -468 -15 l-455 3
-3 725 c-1 399 0 735 3 748 l5 22 455 0 c439 0 455 -1 465 -19z m-408 -1622
c11 -6 26 -26 34 -45 12 -29 12 -39 0 -68 -17 -42 -42 -56 -96 -56 -53 0 -100
42 -100 90 0 48 47 90 100 90 23 0 50 -5 62 -11z"/>
<path d="M5439 1997 c-71 -27 -110 -68 -128 -134 -13 -49 -7 -82 24 -138 50
-87 180 -118 275 -65 130 73 132 247 3 318 -52 28 -126 37 -174 19z"/>
<path d="M5293 1638 c-34 -37 -74 -126 -80 -179 -7 -61 8 -81 81 -106 72 -25
335 -26 418 0 77 23 98 51 87 112 -12 62 -44 134 -76 168 -32 33 -33 33 -78 3
-82 -56 -193 -56 -277 0 -46 30 -49 30 -75 2z"/>
</g>
</svg>
