<?xml version="1.0" encoding="utf-8"?>
<!-- Generator: Adobe Illustrator 16.0.3, SVG Export Plug-In . SVG Version: 6.00 Build 0)  -->
<!DOCTYPE svg PUBLIC "-//W3C//DTD SVG 1.1//EN" "http://www.w3.org/Graphics/SVG/1.1/DTD/svg11.dtd">
<svg version="1.1" id="Capa_1" xmlns="http://www.w3.org/2000/svg" xmlns:xlink="http://www.w3.org/1999/xlink" x="0px" y="0px"
	 width="652px" height="369px" viewBox="0 0 652 369" enable-background="new 0 0 652 369" xml:space="preserve">
<g transform="translate(0.000000,369.000000) scale(0.100000,-0.100000)">
	<path fill="#16466D" stroke="#000000" stroke-width="3" stroke-miterlimit="10" d="M835,3418.999
		c-137.002-75-182.002-108.999-192.002-146.997c-2.998-13.003-26.997-37.002-56.997-56.001C415,3106.001,325,2943.999,325,2745
		c0-112.002,1.001-113.999,110-385c37.002-91.001,103.999-262.998,151.001-382.998c46.001-121.001,101.001-251.006,121.001-290
		c85-162.002,263.999-287.998,460.996-325l94.004-17.998L1260,1137.002c-1.001-229.004,11.001-351.006,43.999-442.998
		c68.003-186.006,196.001-326.006,383.999-418.008c112.002-55,169.004-70,262.002-70c132.998,0,287.002,52.002,401.001,133.008
		c106.997,76.992,215,202.998,248.999,290.996c7.998,19.004,31.001,67.002,52.002,105c20.996,39.004,37.998,77.002,37.998,85
		s8.999,32.998,20,55s18.999,45,20,50.996c0,24.004,73.999,191.006,106.001,241.006c57.998,90.996,138.999,182.002,205,230.996
		C3104.004,1445,3104.004,1445,3199.004,1450l95,5l20,67.998c10,37.002,21.992,67.002,25.996,67.002s10-20.996,14.004-47.002
		C3365,1465.996,3397.002,1220.996,3425,1000c35-275.996,55-420.996,60.996-442.002c6.006-20,39.004-23.994,49.004-7.002
		c7.002,11.006,14.004,119.004,40,619.004c7.998,167.998,20,387.998,25,490c5.996,102.002,17.002,317.998,25,480
		c25,502.998,27.002,530,35,535c9.004,5,10-7.002,35-350c7.998-115,20-267.998,25-340c5.996-71.001,17.002-229.004,25-350
		c27.002-379.004,34.004-437.998,50-454.004c12.998-13.994,17.002-13.994,30,0c12.998,13.008,79.004,220,169.004,532.002
		C4002.998,1744.004,4015,1770,4020,1770c5.996,0,10-4.004,10-9.004c0-3.994,9.004-61.992,20-126.992
		c10.996-66.006,22.002-134.004,25-151.006l5.996-32.998l377.002-2.002L4835,1445l0.996-422.002
		c1.006-417.002,2.002-422.002,24.004-452.002c44.004-62.998,24.004-60.996,647.002-60.996c548.994,0,568.994,0.996,600.996,20
		c17.998,10.996,41.006,34.004,52.002,52.002c20,32.002,20,52.998,20,980.996c0,1037.002,2.998,988.003-59.004,1040L6087.998,2630
		h-575.996c-554.004,0-577.998-1.001-609.004-20c-67.998-41.001-65-17.998-67.002-557.998L4835,1565l-352.002-2.998
		c-327.998-2.002-352.002-1.006-357.002,15c-2.998,10-16.992,87.998-30.996,172.998c-37.002,223.999-44.004,250-65,250
		c-22.998,0-24.004-5-115.996-317.002c-43.008-145-80-262.998-84.004-262.998c-5.996,0-17.998,137.998-45,515
		c-7.998,116.001-22.002,300-30,410c-22.002,291.001-42.002,566.001-55,760c-12.998,185-20,215-49.004,215
		c-23.994,0-27.998-18.999-35.996-165c-2.998-60-12.002-242.998-20-405s-22.002-422.998-30-580c-25-460.996-55-1060-57.002-1127.002
		c-2.998-75-13.994-82.002-22.998-15.996c-2.998,27.002-10,80-15.996,117.998c-24.004,177.998-40,302.998-60,459.004
		c-23.008,182.998-31.006,215.996-53.008,215.996c-21.992,0-30.996-19.004-60.996-125c-15.996-55-32.002-107.002-37.002-115.996
		c-5.996-14.004-27.998-18.008-115-21.006c-78.994-2.998-116.997-8.994-142.998-22.002c-60-31.992-157.002-123.994-225-213.994
		c-71.001-95-97.002-144.004-145-272.002c-17.002-47.002-40-104.004-51.001-127.998c-10-22.998-18.999-49.004-18.999-56.006
		c0-7.998-25-65.996-55-130c-30-62.998-55-120-55-125s-35-45-77.002-87.998c-52.998-52.998-100.996-90-150-115.996
		C2143.999,365.996,2020,330,1956.001,330c-158.999,0.996-396.001,157.998-478.999,317.998c-70,135-72.002,149.004-72.002,437.002
		v260l50,5.996c175,21.006,362.002,127.002,458.999,259.004c23.999,32.998,58.003,94.004,75,137.002
		c18.003,42.998,45,110,61.001,147.998c16.001,38.999,55,135,86.001,215c31.001,80,90,231.001,131.001,335l75,190v110
		c-1.001,120-16.001,182.002-68.003,271.001c-36.997,62.998-126.997,158.999-187.998,200c-27.002,17.998-58.003,50-70,71.001
		c-25,43.999-63.003,70.996-210,146.997c-116.001,60-158.003,68.003-218.999,42.002C1528.999,3452.002,1505,3415,1505,3353.999
		c0-81.997,27.998-103.999,205-165C1807.998,3155,1867.998,3140,1903.999,3140c132.002,0,288.003-183.999,303.003-357.998
		c6.997-88.003-3.003-122.002-129.004-437.002c-55-137.002-117.998-298.999-140-360c-21.997-60-60-152.002-85-204.004
		c-70.996-147.998-170-232.998-330.996-280.996c-65-20-89.004-22.002-215-17.998C1180,1487.002,1157.998,1490,1100,1515
		c-190,80-252.002,157.998-365,458.999c-28.999,78.003-96.001,248.999-150,381.001c-107.002,265-125,323.999-125,402.002
		c0,60,28.999,155.996,63.999,210.996c28.999,46.001,122.002,134.004,163.999,156.001c17.002,8.999,53.003,16.001,80,16.001
		c69.004,0,324.004,88.999,363.003,126.001c26.001,25,28.999,35,28.999,88.999s-2.998,63.999-27.002,87.002
		c-35,33.999-72.998,47.998-125.996,47.998C973.999,3490,937.002,3475,835,3418.999z M5970,2381.001
		c15.996-31.001,14.004-1441.997-2.002-1463.999c-12.002-16.006-48.994-17.002-467.998-15L5045,905l-2.998,725
		c-1.006,398.999,0,735,2.998,747.998l5,22.002h455C5944.003,2400,5960,2398.999,5970,2381.001z M5562.001,759.004
		c10.996-6.006,25.996-26.006,33.994-45c12.002-29.004,12.002-39.004,0-68.008C5579.003,604.004,5554.003,590,5500,590
		c-52.998,0-100,42.002-100,90s47.002,90,100,90C5522.998,770,5550,765,5562.001,759.004z"/>
	<path fill="#16466D" stroke="#000000" stroke-width="3" stroke-miterlimit="10" d="M5439.003,1997.002
		c-71.006-27.002-110-68.003-128.008-134.004c-12.998-48.994-6.992-82.002,24.004-137.998c50-87.002,180-117.998,275-65
		c130,72.998,132.002,247.002,2.998,317.998C5560.996,2006.001,5487.001,2015,5439.003,1997.002z"/>
	<path fill="#16466D" stroke="#000000" stroke-width="3" stroke-miterlimit="10" d="M5292.998,1637.998
		c-33.994-37.002-73.994-125.996-80-178.994c-7.002-61.006,7.998-81.006,81.006-106.006c71.992-25,335-25.996,417.998,0
		c77.002,22.998,97.998,51.006,87.002,112.002c-12.002,62.002-44.004,134.004-76.006,167.998
		c-32.002,32.998-32.998,32.998-77.998,2.998c-82.002-55.996-192.998-55.996-277.002,0
		C5322.001,1665.996,5319.003,1665.996,5292.998,1637.998z"/>
</g>
</svg>
